PathFileType	4	(X/Y/Z)	21_1_4_p0_0-617.trc
DataRate	CameraRate	NumFrames	NumMarkers	Units	OrigDataRate	OrigDataStartFrame	OrigNumFrames
60.0	60.0	6	27	m	60.0	463	618
Frame#	Time	RHip			RKnee			RAnkle			RBigToe			RSmallToe			RHeel			LHip			LKnee			LAnkle			LBigToe			LSmallToe			LHeel			Neck			Head			Nose			RShoulder			RElbow			RWrist			RThumb			RIndex			RPinky			LShoulder			LElbow			LWrist			LThumb			LIndex			LPinky			
		X1	Y1	Z1	X2	Y2	Z2	X3	Y3	Z3	X4	Y4	Z4	X5	Y5	Z5	X6	Y6	Z6	X7	Y7	Z7	X8	Y8	Z8	X9	Y9	Z9	X10	Y10	Z10	X11	Y11	Z11	X12	Y12	Z12	X13	Y13	Z13	X14	Y14	Z14	X15	Y15	Z15	X16	Y16	Z16	X17	Y17	Z17	X18	Y18	Z18	X19	Y19	Z19	X20	Y20	Z20	X21	Y21	Z21	X22	Y22	Z22	X23	Y23	Z23	X24	Y24	Z24	X25	Y25	Z25	X26	Y26	Z26	X27	Y27	Z27	
463	7.716666666666667	0.2851208865021727	0.4659017086511786	1.0730455477020464	0.2809220659498762	0.515689497254573	1.5361942243869664	0.25826976462942586	0.6431262231984375	1.9711795592356938	0.27044893198217235	0.4098306599455046	1.9752050144852624	0.3331446405716384	0.4711132180910962	1.9880268788904392	0.23857486457280583	0.6778157441221638	2.026942789078274	0.09289782165971303	0.4619786357246981	1.078811682294503	0.08491155579431016	0.5531936877246224	1.560102512034553	0.09833814010784017	0.6086786106974396	1.9593524617510731	0.09615509051418156	0.41973236443307166	1.9846512804552465	0.0421497339203354	0.46448636736955307	1.9882045126572232	0.1239850458600263	0.6566977426134151	2.009481146197386	0.2004649422103799	0.4181834223519663	0.49736067055328614	0.2125629847790143	0.36275587992910174	0.2574911114607389	0.20242027125143536	0.325261734852062	0.3774612569925993	0.35116976466824307	0.4542391157249012	0.6140585572694335	0.36090353760407645	0.43805211106956554	0.888531484378553	0.2658073870801865	0.2923802346426523	1.0592423638048574	0.15008139948619317	0.2787206129636318	1.12898924003944	0.1510871058899658	0.30867108462735515	1.1687694863574825	0.20185556852006217	0.34861021761989724	1.2027988621272991	0.053811601397400266	0.4356326751465311	0.5955895934611738	0.034000568741341164	0.4199824924255495	0.8702448813211435	0.1247595253861672	0.3257232012082568	1.0597389670621475	0.1897466323504842	0.28305693821801486	1.1117163391148186	0.19007709958273614	0.30148235822648295	1.1648689625400055	0.17721159035555692	0.3035989636907345	1.1718285933736423
464	7.733333333333333	0.2851191796890056	0.465953019915119	1.07314667596778	0.28092442719966426	0.5158569233913664	1.536226091157217	0.25836104606606236	0.643476856711899	1.9712649303818097	0.2733427835377359	0.42182919262756385	1.9819354526509674	0.3273937152205568	0.4844061625637587	1.9917999033908744	0.24185948537731186	0.6916704050541382	2.034278402314006	0.09289342296065158	0.4619683303907312	1.0789930494543003	0.08639717826981627	0.5547435940312485	1.5605952728446078	0.09830402669087161	0.6085802165340218	1.959544511498461	0.09610596714743308	0.4197848775038289	1.9846615698165273	0.042130946852989286	0.4645926377635455	1.988219267076384	0.12396414515618186	0.6571793723580139	2.010169073015151	0.19580199161344108	0.4304764389086266	0.4984198065080095	0.21251888367418365	0.3627284141381806	0.2574943036886059	0.2023515274718733	0.3251895337204168	0.37753645074854897	0.3511852695572294	0.45428470127386067	0.6140567594790216	0.36087564332862615	0.43797789125766445	0.8884710213085107	0.26577871075910137	0.2923259219060807	1.0591965010321662	0.14947476816435004	0.2785723318089578	1.1318739357998493	0.15107453601317922	0.30826649167575826	1.1685379961439946	0.20173393838045195	0.348174718124798	1.2026519581595994	0.053784219859401794	0.4356609599128671	0.5956319638894639	0.03188230721057005	0.40917790999450193	0.8682701431130447	0.12511039267584279	0.3272454643617842	1.0640919685686114	0.18982543865761636	0.2833797645766055	1.1119524475537015	0.1900806917515566	0.3018632380443566	1.165054407217284	0.17720740121891118	0.303831016654876	1.1719477993700709
465	7.75	0.2851508138930827	0.4658909915992743	1.0730107931658661	0.28092341028527323	0.5157044324816699	1.536091405699648	0.2583795420606129	0.6433053372207544	1.9712104110278421	0.27343901498090306	0.4221804842768947	1.9823363514679773	0.33318230203200905	0.47131422015010443	1.9881046686338963	0.24138100716976202	0.6930365611947304	2.0304930503893606	0.09288798591660401	0.4619757169471845	1.078909226930359	0.08487420590912587	0.5531113857487776	1.5600539423009678	0.09829225480571017	0.6086882014475298	1.9595473178857739	0.09610539975399572	0.41976573414529017	1.984685160539699	0.04213709861127095	0.464628167284162	1.9882065054287044	0.12395159234375992	0.6570351489184988	2.009995314212723	0.1958135765861799	0.4304378910854243	0.4984665441417159	0.2124957676683625	0.3627590813450733	0.25749684722580785	0.20231892683649225	0.32525587004355055	0.3775846864284471	0.35118576534099677	0.4541850671041262	0.6140688917643928	0.3609270132678618	0.4380210524918539	0.8884655824426062	0.26579953877085893	0.29237419740669	1.0591664598662027	0.14957974254058576	0.2790707944145538	1.1320903109785025	0.15118569618892191	0.3083833865331393	1.168738474103929	0.20176881518788517	0.3485739411028622	1.2027380491563204	0.053908892242210855	0.43512197398347047	0.5987514135773204	0.03181950552374313	0.40912933052316924	0.868351124994983	0.12508612911063444	0.3272476887179006	1.0641103564726357	0.18982858646155357	0.28325041156662295	1.112008200079212	0.1905942424495881	0.30303960271880465	1.1686562363925248	0.18199221011752545	0.29267041375756997	1.1682699285995115
466	7.766666666666667	0.28513209683844276	0.4658535792417896	1.073017431229284	0.28060812119684314	0.5173491533229785	1.5327868607885031	0.2583419706299369	0.6430826433043186	1.9710566543513026	0.2766263853083173	0.4344317533275666	1.9894295242910878	0.3324559307844828	0.46984377265199423	1.98311022575868	0.23814312883193536	0.6794093981250656	2.023074647560865	0.09289485378407324	0.4619181332689916	1.0788079928307477	0.08538626330685271	0.5550740238324844	1.5652399961614771	0.0982586758856889	0.6085301218750083	1.9594143787991067	0.09616872852485735	0.41958913656409375	1.984533134229871	0.0421694839454168	0.4645436343976763	1.9880256207056244	0.12386111419515444	0.65653754493031	2.009390962637557	0.19579503458858133	0.4303951140632551	0.49846529331305045	0.21252986392362103	0.36280818940355536	0.25750712098196143	0.2023705645271915	0.32519306077492544	0.37757689240895925	0.35117615922026135	0.45427398349740983	0.6140629254185805	0.3609963171540516	0.43814597602344335	0.8884489542165308	0.26587494323640937	0.2922393160152809	1.0591748991214345	0.15006482417800573	0.2784843276950158	1.128838776540258	0.14885045905420188	0.29764824614120206	1.1653632804574736	0.2017051761133699	0.34820683823536136	1.2026709948517207	0.05390270272804011	0.4350390961124284	0.598695999777312	0.03182691927134428	0.4092418490564522	0.8682036210254442	0.1250675881163986	0.32711370084260927	1.064024711131451	0.1898570295710986	0.28317088163706233	1.1119926860380382	0.19461527427696346	0.2902086773831828	1.1612229571917887	0.18196517243119775	0.2924408666304766	1.1682451420482023
467	7.783333333333333	0.2851508111398518	0.4658464899684275	1.0729876196378756	0.2797375325355115	0.5175575200370092	1.5373884830888143	0.2583471963914185	0.6431771485157483	1.9710664433553344	0.2734898440139348	0.42240895594037237	1.982521914693688	0.33331172477098797	0.4715906922223388	1.9882147449128604	0.2381975234443939	0.6794661671047271	2.0229343163138434	0.09291373641006943	0.4618989932410803	1.0788218814980435	0.08636192731637919	0.5548177660325322	1.5607163024998463	0.09908185520812414	0.6107531087168951	1.9655730932803206	0.09622174627974739	0.4195304422177796	1.9845379807422927	0.04224580469023506	0.464477974037369	1.9881349099714076	0.12398296383056129	0.6567696354715525	2.009758916923822	0.1957881331100793	0.4303877380983819	0.49848357162261187	0.21255064155171524	0.3628356324887584	0.25754488463370206	0.20238970490121488	0.32522147072937796	0.37760717682323247	0.35114720651540055	0.45422787941175385	0.6140988161509082	0.3609980600702476	0.4380985796392797	0.8884332579807741	0.2658538655112363	0.2922311708914074	1.0591857173831327	0.14972972915973404	0.27823814320901696	1.128792672829309	0.150817164935363	0.3084941151997796	1.1685649971931058	0.20183965969661835	0.3469775421150859	1.2058106387397132	0.0538801497598247	0.43507510854446496	0.5987617551114752	0.03131102599567465	0.4092492801624822	0.8718575377745945	0.1251048826903699	0.32713633959218874	1.0640475341908326	0.1899186730858569	0.28322489933917433	1.111900304579578	0.19462979342269962	0.2901647103507043	1.1612377005988774	0.18140452965706158	0.2913993015643702	1.175177205963556
468	7.8	0.2845385874060173	0.4642773925079376	1.0687319972889955	0.27974235863771474	0.5152320979892339	1.527380176709305	0.2612461941861238	0.6572446255958669	1.9784520385576654	0.2735395387182978	0.42172017136377377	1.9815974128497513	0.32827018942987074	0.4861981558740254	1.9971025472153845	0.24523282153821363	0.7056098302730244	2.041505758994203	0.09258063720060526	0.46034678537538376	1.0748674132224325	0.08542321931203996	0.5545066214308157	1.5515209335091267	0.09838004704092002	0.6086881095652495	1.959589329014824	0.09617494336480958	0.4195568906547731	1.9845927504868526	0.04437767613661425	0.4774434141035418	1.9953002831746833	0.12423555524560648	0.6573752934318904	2.0103376646567543	0.19196361769790476	0.4283345035052089	0.49840287984680487	0.21243302481941556	0.3627511406854755	0.2574654286366744	0.20255814714904946	0.3245703429898517	0.3809063911948047	0.35133285308132844	0.4535679611428649	0.6174901637796881	0.360956304732171	0.43803605821252684	0.8884892346066677	0.26615456187665876	0.2911199300862085	1.0621923163328109	0.15054100291080783	0.27708381820522776	1.1241152203647764	0.14916784646479025	0.29715243913809414	1.1653277715262844	0.20157159430227306	0.3482183350952355	1.2024794709248843	0.053940377949885654	0.43494269585777023	0.5987327436992621	0.03142351706970539	0.40951539590443947	0.8716167577422208	0.12077997198869111	0.3236647592697495	1.0591619305084994	0.1897711434089408	0.2827433402906005	1.1113491804286462	0.19488112228056903	0.29077883749546407	1.1531677749509586	0.18127607254503308	0.2912199669541942	1.1638827283490194
